<svg width="26" height="23" xmlns="http://www.w3.org/2000/svg" xmlns:svg="http://www.w3.org/2000/svg">
 <g>
  <title>Layer 1</title>
  <path d="m25.837,2.97865c-0.93791,0.4506 -1.94728,0.75454 -3.00637,0.89056c1.08136,-0.69969 1.91051,-1.80799 2.30152,-3.13012c-1.01145,0.64875 -2.13113,1.1195 -3.32384,1.37362c-0.95448,-1.09935 -2.31499,-1.78672 -3.8205,-1.78672c-2.89037,0 -5.23383,2.53287 -5.23383,5.65739c0,0.44276 0.04609,0.87433 0.13569,1.2891c-4.35031,-0.23621 -8.20758,-2.48809 -10.78928,-5.91095c-0.45057,0.83515 -0.70848,1.80687 -0.70848,2.84465c0,1.96248 0.92392,3.69434 2.32845,4.70861c-0.85763,-0.02967 -1.66503,-0.28435 -2.37092,-0.70808c-0.00052,0.02351 -0.00052,0.04758 -0.00052,0.07165c0,2.74053 1.80434,5.02655 4.19908,5.54711c-0.43917,0.12874 -0.90165,0.19815 -1.37915,0.19815c-0.33767,0 -0.66549,-0.03526 -0.98503,-0.10187c0.66653,2.24739 2.59931,3.88354 4.88943,3.92888c-1.79139,1.51748 -4.04786,2.42203 -6.5006,2.42203c-0.42208,0 -0.83899,-0.02687 -1.24864,-0.07948c2.31706,1.60592 5.06811,2.54182 8.02373,2.54182c9.62816,0 14.89255,-8.62014 14.89255,-16.09615c0,-0.24517 -0.00466,-0.48978 -0.0145,-0.73271c1.02232,-0.79596 1.90999,-1.79288 2.61122,-2.92749l-0.00001,0z" id="svg_1"/>
 </g>
</svg>