<svg width="30" height="17" xmlns="http://www.w3.org/2000/svg" xmlns:svg="http://www.w3.org/2000/svg">
 <g>
  <title>Layer 1</title>
  <g id="svg_4"/>
  <g id="svg_10" transform="matrix(0.33453499726858565,0,0,0.31835195150754586,481.87576424428835,60.936535943316926) ">
   <path clip-rule="evenodd" d="m-1392.81811,-138.19787c2.93889,0 2.93889,-4.23494 2.93889,-5.87778c0,-2.93889 2.93889,-5.87778 5.87778,-5.87778s7.97908,5.04019 11.75556,8.81667c2.93889,2.93889 2.93889,2.93889 5.87778,2.93889s8.81667,0 8.81667,0s5.87778,-0.22336 5.87778,-5.87778c0,-1.83681 -2.01314,-4.95203 -8.81667,-11.75556c-5.87778,-5.87778 -8.89308,-2.84191 0,-14.69444c5.41637,-7.21791 9.35742,-13.75694 8.68148,-15.64371c-0.64656,-1.80154 -15.7113,-4.66989 -17.49814,-1.98963c-5.87778,8.81667 -6.95635,10.97675 -8.81667,14.69444c-2.93889,5.87778 -3.22984,8.81667 -5.87778,8.81667c-2.67145,0 -2.93889,-5.70438 -2.93889,-8.81667c0,-9.71597 1.40773,-16.58709 -2.93889,-17.63333c0,0 -5.87778,0 -8.81667,0c-4.73161,0 -8.81667,2.93889 -8.81667,2.93889s-3.64716,2.84484 -2.93889,2.93889c0.87579,0.11756 5.87778,-1.2167 5.87778,2.93889c0,2.93889 0,5.87778 0,5.87778s0.02645,11.75556 -2.93889,11.75556c-2.93889,0 -8.81667,-11.75556 -14.69444,-20.57222c-2.30703,-3.45907 -2.93889,-2.93889 -5.87778,-2.93889c-3.15049,0 -5.87484,0.12343 -8.81667,0.12343c-2.93889,0 -3.31507,1.87207 -2.93889,2.81546c5.87778,14.69444 10.10096,23.92255 21.26874,35.5488c10.24203,10.66523 17.08376,11.23243 22.81459,11.47342c1.46944,0.06172 0,0 2.93889,0z" fill-rule="evenodd" id="svg_9"/>
  </g>
  <g id="svg_8"/>
 </g>
</svg>